<?xml version="1.0" encoding="utf-8"?>
<!-- Generator: Adobe Illustrator 21.1.0, SVG Export Plug-In . SVG Version: 6.00 Build 0)  -->
<svg version="1.1" id="Layer_1" xmlns="http://www.w3.org/2000/svg" xmlns:xlink="http://www.w3.org/1999/xlink" x="0px" y="0px"
	 viewBox="0 0 648 130" style="enable-background:new 0 0 648 130;" xml:space="preserve">
<style type="text/css">
	.st0{fill:none;stroke:#333333;stroke-width:5;stroke-miterlimit:10;}
	.st1{opacity:0.75;fill:none;stroke:#333333;stroke-width:5;stroke-miterlimit:10;enable-background:new    ;}
</style>
<g>
	<path class="st0" d="M87.8,88.2c0,7.4-1.9,13.9-5.6,19.7c-3.7,5.7-9.1,10.2-16.2,13.3c-7.1,3.2-15.3,4.8-24.8,4.8
		c-7.9,0-14.6-0.6-19.9-1.7s-11-3.1-16.8-5.8V89.8c6.1,3.1,12.5,5.6,19.1,7.4s12.7,2.6,18.2,2.6c4.8,0,8.3-0.8,10.5-2.5
		s3.3-3.8,3.3-6.4c0-1.6-0.4-3.1-1.3-4.3S52,84.1,50,82.9s-7.3-3.8-15.8-7.6c-7.8-3.5-13.6-6.9-17.5-10.3C12.9,61.8,10,58,8.1,53.7
		s-2.8-9.4-2.8-15.2c0-11,4-19.5,12-25.6s18.9-9.2,32.9-9.2c12.3,0,24.8,2.8,37.6,8.5L78,37c-11.1-5.1-20.7-7.6-28.8-7.6
		c-4.2,0-7.2,0.7-9.1,2.2c-1.9,1.5-2.8,3.3-2.8,5.5c0,2.3,1.2,4.4,3.6,6.3c2.4,1.8,9,5.2,19.7,10.1C70.9,58.1,78,63.1,82,68.4
		C85.8,73.6,87.8,80.2,87.8,88.2z"/>
	<path class="st0" d="M208.2,124.3h-32.3V75.8h-37.4v48.5h-32.3V5.4h32.3v44.1h37.4V5.4h32.3V124.3z"/>
	<path class="st0" d="M320.2,43.2c0,13.3-3.9,23.6-11.8,30.8c-7.8,7.2-19,10.9-33.4,10.9h-9v39.5h-32.1V5.4h41.2
		c15,0,26.3,3.3,33.9,9.8C316.5,21.8,320.2,31.2,320.2,43.2z M266,58.7h5.9c4.8,0,8.7-1.4,11.5-4.1c2.8-2.7,4.3-6.5,4.3-11.2
		c0-8-4.4-12-13.3-12h-8.3v27.3H266z"/>
	<path class="st1" d="M289.1,112.8c0-3.6,1.1-6.4,3.2-8.3c2.1-2,5.2-2.9,9.3-2.9c3.9,0,6.8,1,8.9,2.9c2.1,2,3.1,4.7,3.1,8.3
		c0,3.5-1.1,6.3-3.2,8.2c-2.1,2-5.1,3-8.8,3c-3.9,0-6.9-1-9.1-2.9C290.2,119.2,289.1,116.3,289.1,112.8z"/>
	<path class="st0" d="M370.5,81.1v43.3h-32.1V5.4h39c32.3,0,48.5,11.7,48.5,35.2c0,13.8-6.7,24.4-20.2,32l34.7,51.8h-36.5L378.6,81
		C378.6,81,370.5,81,370.5,81.1z M370.5,56.9h6c11.2,0,16.8-5,16.8-14.9c0-8.2-5.5-12.3-16.5-12.3h-6.3V56.9z"/>
	<path class="st0" d="M521.8,124.3h-70.6V5.4h70.6v25.8h-38.5v18.7h35.6v25.8h-35.6v22.5h38.5L521.8,124.3L521.8,124.3z"/>
	<path class="st0" d="M643.5,62.4c0,19.9-5.5,35.2-16.4,45.9s-26.3,16.1-46.1,16.1h-38.5V5.4h41.2c19.1,0,33.8,4.9,44.2,14.6
		C638.4,29.8,643.5,43.9,643.5,62.4z M610.2,63.5c0-10.9-2.2-19-6.5-24.2c-4.3-5.3-10.9-7.9-19.7-7.9h-9.4v66.6h7.2
		c9.8,0,16.9-2.8,21.5-8.5C608,83.8,610.2,75.2,610.2,63.5z"/>
</g>
</svg>
